<svg id="Layer_1" data-name="Layer 1" xmlns="http://www.w3.org/2000/svg" viewBox="0 0 520 520"><defs><style>.cls-1,.cls-2{fill:none;stroke:#000;stroke-linecap:round;stroke-linejoin:round;stroke-width:24px;}.cls-2{stroke-dasharray:0 81.6;}</style></defs><title>ck_logo_sketching</title><line class="cls-1" x1="471.97" y1="382.39" x2="471.97" y2="382.39"/><line class="cls-2" x1="471.97" y1="300.8" x2="471.97" y2="178.4"/><line class="cls-1" x1="471.97" y1="137.61" x2="471.97" y2="137.61"/><line class="cls-2" x1="401.3" y1="96.81" x2="295.31" y2="35.61"/><line class="cls-1" x1="259.97" y1="15.21" x2="259.97" y2="15.21"/><line class="cls-2" x1="189.31" y1="56.01" x2="83.31" y2="117.21"/><line class="cls-1" x1="47.98" y1="137.61" x2="47.98" y2="137.61"/><line class="cls-2" x1="47.98" y1="219.2" x2="47.98" y2="341.6"/><line class="cls-1" x1="47.98" y1="382.39" x2="47.98" y2="382.39"/><line class="cls-2" x1="118.64" y1="423.19" x2="224.64" y2="484.39"/><line class="cls-1" x1="259.97" y1="504.79" x2="259.97" y2="504.79"/><line class="cls-2" x1="330.64" y1="463.99" x2="436.63" y2="402.79"/><line class="cls-1" x1="259.97" y1="15.21" x2="259.97" y2="504.79"/><line class="cls-1" x1="471.97" y1="137.61" x2="259.97" y2="260"/><line class="cls-1" x1="471.97" y1="382.39" x2="259.97" y2="260"/><polyline class="cls-1" points="259.97 137.61 153.98 198.8 153.98 321.2 259.97 382.39"/></svg>